<mxfile host="app.diagrams.net" modified="2021-12-25T10:53:06.637Z" agent="5.0 (Windows NT 10.0; Win64; x64) AppleWebKit/537.36 (KHTML, like Gecko) Chrome/96.0.4664.110 Safari/537.36" etag="clTS9dSzaDqeILboFM4J" version="16.1.0" type="github">
  <diagram id="1Qwgqj8jgj0znWAkoyNX" name="Page-1">
    <mxGraphModel dx="1038" dy="556" grid="1" gridSize="10" guides="1" tooltips="1" connect="1" arrows="1" fold="1" page="1" pageScale="1" pageWidth="827" pageHeight="1169" math="0" shadow="0">
      <root>
        <mxCell id="0" />
        <mxCell id="1" parent="0" />
        <mxCell id="B8VBQRIlJatLfJY-IvJe-1" value="Milk" style="rounded=0;whiteSpace=wrap;html=1;" parent="1" vertex="1">
          <mxGeometry x="300" y="150" width="120" height="40" as="geometry" />
        </mxCell>
        <mxCell id="B8VBQRIlJatLfJY-IvJe-3" value="Telunsu" style="rounded=0;whiteSpace=wrap;html=1;" parent="1" vertex="1">
          <mxGeometry x="110" y="260" width="120" height="40" as="geometry" />
        </mxCell>
        <mxCell id="B8VBQRIlJatLfJY-IvJe-4" value="Yili" style="rounded=0;whiteSpace=wrap;html=1;" parent="1" vertex="1">
          <mxGeometry x="294" y="260" width="120" height="40" as="geometry" />
        </mxCell>
        <mxCell id="B8VBQRIlJatLfJY-IvJe-5" value="Mengniu" style="rounded=0;whiteSpace=wrap;html=1;" parent="1" vertex="1">
          <mxGeometry x="480" y="260" width="120" height="40" as="geometry" />
        </mxCell>
        <mxCell id="UheKmFImLjJvSyQ7krAK-1" value="" style="endArrow=classic;html=1;rounded=0;exitX=0.5;exitY=0;exitDx=0;exitDy=0;entryX=0.5;entryY=1;entryDx=0;entryDy=0;" edge="1" parent="1" source="B8VBQRIlJatLfJY-IvJe-3" target="B8VBQRIlJatLfJY-IvJe-1">
          <mxGeometry width="50" height="50" relative="1" as="geometry">
            <mxPoint x="320" y="310" as="sourcePoint" />
            <mxPoint x="370" y="260" as="targetPoint" />
          </mxGeometry>
        </mxCell>
        <mxCell id="UheKmFImLjJvSyQ7krAK-2" value="" style="endArrow=classic;html=1;rounded=0;exitX=0.58;exitY=-0.09;exitDx=0;exitDy=0;exitPerimeter=0;entryX=0.5;entryY=1;entryDx=0;entryDy=0;" edge="1" parent="1" source="B8VBQRIlJatLfJY-IvJe-4" target="B8VBQRIlJatLfJY-IvJe-1">
          <mxGeometry width="50" height="50" relative="1" as="geometry">
            <mxPoint x="320" y="310" as="sourcePoint" />
            <mxPoint x="370" y="260" as="targetPoint" />
          </mxGeometry>
        </mxCell>
        <mxCell id="UheKmFImLjJvSyQ7krAK-3" value="" style="endArrow=classic;html=1;rounded=0;entryX=0.5;entryY=1;entryDx=0;entryDy=0;exitX=0.5;exitY=0;exitDx=0;exitDy=0;" edge="1" parent="1" source="B8VBQRIlJatLfJY-IvJe-5" target="B8VBQRIlJatLfJY-IvJe-1">
          <mxGeometry width="50" height="50" relative="1" as="geometry">
            <mxPoint x="320" y="310" as="sourcePoint" />
            <mxPoint x="370" y="260" as="targetPoint" />
          </mxGeometry>
        </mxCell>
      </root>
    </mxGraphModel>
  </diagram>
</mxfile>
